<svg width="200" height="200" xmlns="http://www.w3.org/2000/svg" xml:space="preserve" enable-background="new 0 0 841.89 595.28" version="1.1">

 <g>
  <title>Layer 1</title>
  <g id="svg_1">
   <path id="svg_2" d="m86.349,73.637c-8.066,-8.176 -8.066,-21.454 0,-29.627c8.066,-8.176 21.125,-8.176 29.192,0l4.854,4.938l4.857,-4.938c8.066,-8.176 21.123,-8.176 29.19,0c8.066,8.174 8.066,21.451 0,29.627l-27.872,28.312c-1.701,1.729 -3.924,2.579 -6.175,2.579c-2.248,0 -4.47,-0.851 -6.171,-2.579l-27.875,-28.312zm110.916,54.705c3.594,4.881 2.55,11.74 -2.333,15.334l-34.731,25.596c-6.419,4.721 -14.155,7.271 -22.138,7.271l-44.005,0l-43.893,0c-4.855,0 -8.778,-3.922 -8.778,-8.775l0,-17.563c0,-4.854 3.923,-8.781 8.778,-8.781l10.096,0l12.318,-9.873c6.225,-4.994 13.963,-7.68 21.946,-7.68l21.48,0l4.389,0l17.559,0c4.855,0 8.779,3.92 8.779,8.777s-3.923,8.775 -8.779,8.775l-17.559,0l-4.389,0c-2.414,0 -4.39,1.977 -4.39,4.391s1.976,4.391 4.39,4.391l33.086,0l32.838,-24.199c4.884,-3.594 11.742,-2.551 15.336,2.336zm-102.767,13.082l0,0l-0.248,0c0.083,0 0.165,0 0.248,0z" fill="#E55842"/>
   <rect id="svg_14" height="6.325" width="60.306" fill="#E55842" y="43.842" x="11.233"/>
   <rect id="svg_15" height="6.327" width="60.308" fill="#E55842" y="61.66" x="1.281"/>
   <rect id="svg_16" height="6.327" width="60.308" fill="#E55842" y="79.478" x="19.751"/>
  </g>
  <g id="svg_17"/>
  <g id="svg_18"/>
  <g id="svg_19"/>
  <g id="svg_20"/>
  <g id="svg_21"/>
  <g id="svg_22"/>
 </g>
</svg>