<?xml version="1.0" standalone="no"?>
<!DOCTYPE svg PUBLIC "-//W3C//DTD SVG 20010904//EN"
 "http://www.w3.org/TR/2001/REC-SVG-20010904/DTD/svg10.dtd">
<svg version="1.0" xmlns="http://www.w3.org/2000/svg"
 width="700.000000pt" height="700.000000pt" viewBox="0 0 700.000000 700.000000"
 preserveAspectRatio="xMidYMid meet">
<metadata>
Created by potrace 1.14, written by Peter Selinger 2001-2017
</metadata>
<g transform="translate(0.000000,700.000000) scale(0.100000,-0.100000)"
fill="#000000" stroke="none">
<path d="M3445 5668 c-270 -35 -505 -226 -593 -483 -32 -94 -41 -162 -37 -275
4 -122 26 -204 88 -325 47 -91 109 -156 868 -921 304 -308 317 -317 439 -318
141 -2 128 -12 736 609 86 88 236 241 333 340 188 192 225 238 270 338 165
367 14 793 -344 967 -204 100 -428 97 -635 -7 -82 -41 -111 -63 -226 -176
l-132 -128 -99 101 c-54 56 -126 122 -160 146 -148 107 -332 155 -508 132z"/>
<path d="M400 5460 c-4 -3 -8 -52 -7 -110 l1 -105 1053 0 c1051 -1 1053 0
1054 20 4 71 3 195 -1 196 -16 5 -2093 3 -2100 -1z"/>
<path d="M51 4840 c-3 -3 -6 -52 -6 -110 l0 -105 1055 -3 1056 -2 -1 104 c0
57 -3 108 -7 111 -8 8 -2086 13 -2097 5z"/>
<path d="M690 4109 c0 -80 3 -109 13 -110 6 0 479 -2 1051 -2 841 -2 1039 0
1044 11 2 7 5 57 6 112 l1 99 -1057 0 -1058 0 0 -110z"/>
<path d="M3153 2653 c-240 -30 -465 -132 -669 -302 -17 -14 -40 -33 -50 -41
-11 -8 -87 -70 -171 -137 l-151 -122 -219 -3 c-209 -3 -220 -4 -268 -28 -70
-35 -130 -99 -155 -167 -20 -53 -21 -71 -18 -432 3 -375 3 -376 27 -425 30
-61 78 -109 145 -144 l51 -27 1640 0 c902 0 1663 3 1690 8 287 43 435 115 805
392 63 48 126 94 140 103 14 9 86 62 160 117 74 56 271 201 437 323 168 124
320 243 342 270 60 69 84 139 84 242 0 64 -5 99 -21 140 -48 123 -164 217
-289 236 -26 3 -55 8 -63 9 -30 6 -124 -17 -169 -40 -37 -19 -207 -137 -271
-188 -8 -7 -125 -93 -260 -192 -286 -210 -491 -361 -505 -373 -5 -4 -48 -35
-95 -69 l-85 -61 -600 2 c-572 1 -601 2 -632 20 -69 42 -95 143 -53 210 45 73
24 70 525 76 403 4 454 7 489 23 89 40 152 112 178 202 48 163 -57 342 -222
381 -59 13 -1636 11 -1747 -3z"/>
</g>
</svg>
